<svg id="SvgjsSvg1011" xmlns="http://www.w3.org/2000/svg" version="1.1" width="76" height="55" viewBox="0 0 76 55"><title>Group 6 Copy 2</title><desc>Created with Avocode.</desc><defs id="SvgjsDefs1012"></defs><path id="SvgjsPath1013" d="M156.32 145H87.67999999999999C85.64999999999999 145 83.99999999999999 146.64 83.99999999999999 148.65V188.76C83.99999999999999 190.76999999999998 85.64999999999999 192.39999999999998 87.67999999999999 192.39999999999998H156.32C158.35 192.39999999999998 160 190.76999999999998 160 188.76V148.64999999999998C160 146.64 158.35 144.99999999999997 156.32 144.99999999999997Z " fill="#809dac" fill-opacity="1" transform="matrix(1,0,0,1,-84,-138)"></path><path id="SvgjsPath1014" d="M119 193V187H126V193Z " fill="#708d9c" fill-opacity="1" transform="matrix(1,0,0,1,-84,-138)"></path><path id="SvgjsPath1015" d="M155.19 183.65V187.29C155.19 187.95999999999998 154.64 188.51 153.97 188.51H90.22999999999999C89.54999999999998 188.51 88.99999999999999 187.95999999999998 88.99999999999999 187.29V183.65L96.32 180L125.74 181.22L150.26 180Z " fill="#a5b8c2" fill-opacity="1" transform="matrix(1,0,0,1,-84,-138)"></path><path id="SvgjsPath1016" d="M90.72 184.67C100.78999999999999 180.54999999999998 112.18 180.79999999999998 122.1 185.42V141.67C111.86 136.89 100.03999999999999 136.78 89.72999999999999 141.33999999999997C89.27999999999999 141.52999999999997 88.99999999999999 141.97999999999996 88.99999999999999 142.45999999999998V183.55999999999997C88.99999999999999 184.43999999999997 89.89999999999999 185.00999999999996 90.71999999999998 184.67Z " fill="#ffffff" fill-opacity="1" transform="matrix(1,0,0,1,-84,-138)"></path><path id="SvgjsPath1017" d="M122 185.42C131.91 180.79999999999998 143.3 180.54999999999998 153.38 184.67C154.2 185.01 155.1 184.44 155.1 183.55999999999997V142.45999999999998C155.1 141.98 154.81 141.52999999999997 154.37 141.33999999999997C144.06 136.77999999999997 132.24 136.89 122 141.67Z " fill="#ffffff" fill-opacity="1" transform="matrix(1,0,0,1,-84,-138)"></path><path id="SvgjsPath1018" d="M127.23 177.38C126.7 177.38 126.22 177.04999999999998 126.06 176.53C125.85000000000001 175.89000000000001 126.21000000000001 175.21 126.86 175.01C128.1 174.62 129.37 174.29 130.65 174.03C131.31 173.89000000000001 131.96 174.31 132.1 174.97C132.23999999999998 175.62 131.82 176.27 131.15 176.4C129.96 176.65 128.76000000000002 176.96 127.59 177.33C127.47 177.37 127.35000000000001 177.38000000000002 127.23 177.38000000000002Z " fill="#dae4e9" fill-opacity="1" transform="matrix(1,0,0,1,-84,-138)"></path><path id="SvgjsPath1019" d="M149.94 177.2C149.81 177.2 149.69 177.17999999999998 149.57 177.14999999999998C144.94 175.70999999999998 140.15 175.17 135.32 175.54999999999998C134.64 175.6 134.06 175.1 134 174.42999999999998C133.95 173.76 134.45 173.17999999999998 135.13 173.11999999999998C140.28 172.71999999999997 145.38 173.28999999999996 150.29999999999998 174.82999999999998C150.95 175.02999999999997 151.30999999999997 175.70999999999998 151.10999999999999 176.35C150.94 176.87 150.45999999999998 177.2 149.94 177.2Z " fill="#dae4e9" fill-opacity="1" transform="matrix(1,0,0,1,-84,-138)"></path><path id="SvgjsPath1020" d="M150.52 172.21C150.4 172.21 150.27 172.19 150.15 172.15C142.77 169.86 134.97 169.86 127.59 172.15C126.94 172.36 126.26 172 126.06 171.36C125.85000000000001 170.72000000000003 126.21000000000001 170.04000000000002 126.86 169.84C134.72 167.39000000000001 143.02 167.39000000000001 150.88 169.84C151.53 170.04 151.89 170.72 151.69 171.36C151.52 171.88000000000002 151.04 172.21 150.52 172.21Z " fill="#dae4e9" fill-opacity="1" transform="matrix(1,0,0,1,-84,-138)"></path><path id="SvgjsPath1021" d="M127.23 168.2C126.7 168.2 126.22 167.86999999999998 126.06 167.35C125.85000000000001 166.71 126.21000000000001 166.03 126.86 165.82999999999998C131.37 164.42 136.05 163.82 140.77 164.04C141.44 164.07999999999998 141.97 164.65 141.93 165.32C141.9 165.98999999999998 141.34 166.5 140.65 166.47C136.23000000000002 166.27 131.83 166.83 127.59 168.15C127.47 168.18 127.35000000000001 168.20000000000002 127.23 168.20000000000002Z " fill="#dae4e9" fill-opacity="1" transform="matrix(1,0,0,1,-84,-138)"></path><path id="SvgjsPath1022" d="M150.13 168.62C150.01 168.62 149.88 168.6 149.76 168.56C148.20999999999998 168.08 146.62 167.69 145.01 167.41C144.35 167.29999999999998 143.89999999999998 166.67 144.01999999999998 166C144.14 165.34 144.76999999999998 164.9 145.43999999999997 165.02C147.14999999999998 165.32000000000002 148.84999999999997 165.73000000000002 150.49999999999997 166.24C151.13999999999996 166.44 151.49999999999997 167.13 151.29999999999998 167.77C151.14 168.29000000000002 150.64999999999998 168.62 150.13 168.62Z " fill="#dae4e9" fill-opacity="1" transform="matrix(1,0,0,1,-84,-138)"></path><path id="SvgjsPath1023" d="M150.52 162.21C150.4 162.21 150.27 162.19 150.15 162.15C142.77 159.86 134.97 159.86 127.59 162.15C126.94 162.35 126.26 162 126.06 161.36C125.85000000000001 160.72000000000003 126.21000000000001 160.04000000000002 126.86 159.84C134.72 157.39000000000001 143.02 157.39000000000001 150.88 159.84C151.53 160.04 151.89 160.72 151.69 161.36C151.52 161.88000000000002 151.04 162.21 150.52 162.21Z " fill="#dae4e9" fill-opacity="1" transform="matrix(1,0,0,1,-84,-138)"></path><path id="SvgjsPath1024" d="M127.23 157.97C126.7 157.97 126.22 157.64 126.06 157.12C125.85000000000001 156.48000000000002 126.21000000000001 155.79 126.86 155.59C129.32 154.82 131.88 154.29 134.45 154.01C135.13 153.92999999999998 135.73 154.42 135.79999999999998 155.07999999999998C135.86999999999998 155.74999999999997 135.39 156.35 134.71999999999997 156.42C132.30999999999997 156.69 129.90999999999997 157.19 127.58999999999997 157.91C127.46999999999997 157.95 127.34999999999998 157.97 127.22999999999998 157.97Z " fill="#dae4e9" fill-opacity="1" transform="matrix(1,0,0,1,-84,-138)"></path><path id="SvgjsPath1025" d="M151.26 158.2C151.14 158.2 151.01 158.17999999999998 150.89 158.14C147.42999999999998 157.05999999999997 143.83999999999997 156.48999999999998 140.20999999999998 156.42999999999998C139.52999999999997 156.42 138.98999999999998 155.86999999999998 138.99999999999997 155.2C139.00999999999996 154.53 139.59999999999997 153.95999999999998 140.24999999999997 154C144.10999999999999 154.06 147.93999999999997 154.68 151.61999999999998 155.82C152.26999999999998 156.03 152.62999999999997 156.70999999999998 152.42999999999998 157.35C152.26 157.87 151.77999999999997 158.2 151.26 158.2Z " fill="#dae4e9" fill-opacity="1" transform="matrix(1,0,0,1,-84,-138)"></path><path id="SvgjsPath1026" d="M127.23 154.21C126.7 154.21 126.22 153.87 126.06 153.35C125.85000000000001 152.71 126.21000000000001 152.03 126.86 151.82999999999998C132.2 150.17 137.73 149.63 143.3 150.24999999999997C143.97 150.31999999999996 144.45000000000002 150.91999999999996 144.38000000000002 151.58999999999997C144.31000000000003 152.25999999999996 143.71000000000004 152.74999999999997 143.03000000000003 152.65999999999997C137.80000000000004 152.08999999999997 132.61000000000004 152.58999999999997 127.59000000000003 154.14999999999998C127.47000000000003 154.18999999999997 127.35000000000004 154.20999999999998 127.23000000000003 154.20999999999998Z " fill="#dae4e9" fill-opacity="1" transform="matrix(1,0,0,1,-84,-138)"></path><path id="SvgjsPath1027" d="M150.68 153.11C150.56 153.11 150.43 153.09 150.31 153.05C149.53 152.81 148.73 152.59 147.94 152.4C147.28 152.24 146.87 151.58 147.04 150.93C147.2 150.28 147.85 149.88 148.51999999999998 150.03C149.36999999999998 150.24 150.21999999999997 150.47 151.04999999999998 150.73C151.68999999999997 150.92999999999998 152.04999999999998 151.61999999999998 151.85 152.26C151.68 152.78 151.2 153.10999999999999 150.68 153.10999999999999Z " fill="#dae4e9" fill-opacity="1" transform="matrix(1,0,0,1,-84,-138)"></path><path id="SvgjsPath1028" d="M127.23 148.11C126.7 148.11 126.22 147.78 126.06 147.26000000000002C125.85000000000001 146.62000000000003 126.21000000000001 145.93 126.86 145.73000000000002C127.7 145.47000000000003 128.55 145.24 129.39 145.04000000000002C130.04 144.88000000000002 130.70999999999998 145.28000000000003 130.86999999999998 145.93C131.02999999999997 146.58 130.61999999999998 147.24 129.96999999999997 147.4C129.17999999999998 147.59 128.37999999999997 147.81 127.58999999999997 148.05C127.46999999999997 148.09 127.34999999999998 148.11 127.22999999999998 148.11Z " fill="#dae4e9" fill-opacity="1" transform="matrix(1,0,0,1,-84,-138)"></path><path id="SvgjsPath1029" d="M150.16 148.21C150.04 148.21 149.92 148.19 149.79 148.15C144.78 146.59 139.59 146.09 134.35999999999999 146.66C133.67999999999998 146.74 133.07999999999998 146.25 133.01 145.59C132.92999999999998 144.92000000000002 133.42 144.32 134.09 144.25C139.66 143.63 145.19 144.17 150.53 145.83C151.17 146.03 151.53 146.71 151.33 147.35000000000002C151.17000000000002 147.87000000000003 150.68 148.21000000000004 150.16000000000003 148.21000000000004Z " fill="#dae4e9" fill-opacity="1" transform="matrix(1,0,0,1,-84,-138)"></path><path id="SvgjsPath1030" d="M94.23 177.38C93.7 177.38 93.22 177.04999999999998 93.06 176.53C92.85000000000001 175.89000000000001 93.21000000000001 175.21 93.86 175.01C95.1 174.62 96.37 174.29 97.65 174.03C98.31 173.89000000000001 98.96000000000001 174.31 99.10000000000001 174.97C99.24000000000001 175.62 98.82000000000001 176.27 98.15 176.4C96.96000000000001 176.65 95.76 176.96 94.59 177.33C94.47 177.37 94.35000000000001 177.38000000000002 94.23 177.38000000000002Z " fill="#dae4e9" fill-opacity="1" transform="matrix(1,0,0,1,-84,-138)"></path><path id="SvgjsPath1031" d="M116.94 177.2C116.81 177.2 116.69 177.17999999999998 116.57 177.14999999999998C111.94 175.70999999999998 107.14999999999999 175.17 102.32 175.54999999999998C101.63 175.6 101.05999999999999 175.1 101 174.42999999999998C100.95 173.76 101.45 173.17999999999998 102.13 173.11999999999998C107.28 172.71999999999997 112.38 173.28999999999996 117.3 174.82999999999998C117.95 175.02999999999997 118.31 175.70999999999998 118.11 176.35C117.94 176.87 117.46 177.2 116.94 177.2Z " fill="#dae4e9" fill-opacity="1" transform="matrix(1,0,0,1,-84,-138)"></path><path id="SvgjsPath1032" d="M117.52 172.21C117.39999999999999 172.21 117.27 172.19 117.14999999999999 172.15C109.77 169.86 101.97 169.86 94.58999999999999 172.15C93.93999999999998 172.36 93.25999999999999 172 93.05999999999999 171.36C92.85 170.72000000000003 93.21 170.04000000000002 93.85999999999999 169.84C101.71999999999998 167.39000000000001 110.01999999999998 167.39000000000001 117.87999999999998 169.84C118.52999999999999 170.04 118.88999999999999 170.72 118.68999999999998 171.36C118.51999999999998 171.88000000000002 118.03999999999998 172.21 117.51999999999998 172.21Z " fill="#dae4e9" fill-opacity="1" transform="matrix(1,0,0,1,-84,-138)"></path><path id="SvgjsPath1033" d="M94.23 168.2C93.7 168.2 93.22 167.86999999999998 93.06 167.35C92.85000000000001 166.71 93.21000000000001 166.03 93.86 165.82999999999998C98.37 164.42 103.06 163.82 107.77 164.04C108.44 164.07999999999998 108.97 164.65 108.92999999999999 165.32C108.89999999999999 165.98999999999998 108.33 166.5 107.64999999999999 166.47C103.22 166.27 98.82999999999998 166.83 94.58999999999999 168.15C94.46999999999998 168.18 94.35 168.20000000000002 94.22999999999999 168.20000000000002Z " fill="#dae4e9" fill-opacity="1" transform="matrix(1,0,0,1,-84,-138)"></path><path id="SvgjsPath1034" d="M117.13 168.62C117.00999999999999 168.62 116.88 168.6 116.75999999999999 168.56C115.21 168.08 113.61999999999999 167.69 112.00999999999999 167.41C111.35 167.29999999999998 110.89999999999999 166.67 111.02 166C111.14 165.34 111.77 164.9 112.44 165.02C114.14999999999999 165.32000000000002 115.85 165.73000000000002 117.5 166.24C118.14 166.44 118.5 167.13 118.3 167.77C118.14 168.29000000000002 117.64999999999999 168.62 117.13 168.62Z " fill="#dae4e9" fill-opacity="1" transform="matrix(1,0,0,1,-84,-138)"></path><path id="SvgjsPath1035" d="M94.23 162.2C93.7 162.2 93.22 161.86999999999998 93.06 161.35C92.85000000000001 160.71 93.21000000000001 160.03 93.86 159.82999999999998C100.83 157.66 108.26 157.42 115.35 159.13C116.00999999999999 159.29 116.41999999999999 159.94 116.25999999999999 160.6C116.1 161.25 115.42999999999999 161.65 114.77 161.48999999999998C108.11 159.87999999999997 101.14 160.10999999999999 94.59 162.14999999999998C94.47 162.17999999999998 94.35000000000001 162.2 94.23 162.2Z " fill="#dae4e9" fill-opacity="1" transform="matrix(1,0,0,1,-84,-138)"></path><path id="SvgjsPath1036" d="M94.23 157.97C93.7 157.97 93.22 157.64 93.06 157.12C92.85000000000001 156.48000000000002 93.21000000000001 155.79 93.86 155.59C96.32 154.82 98.88 154.29 101.45 154.01C102.12 153.92999999999998 102.73 154.42 102.8 155.07999999999998C102.86999999999999 155.74999999999997 102.39 156.35 101.72 156.42C99.31 156.69 96.91 157.19 94.59 157.91C94.47 157.95 94.35000000000001 157.97 94.23 157.97Z " fill="#dae4e9" fill-opacity="1" transform="matrix(1,0,0,1,-84,-138)"></path><path id="SvgjsPath1037" d="M114.81 157.52C114.71000000000001 157.52 114.61 157.51000000000002 114.52 157.49C111.8 156.83 109 156.48000000000002 106.21 156.43C105.52999999999999 156.42000000000002 104.99 155.87 105 155.20000000000002C105.01 154.53000000000003 105.54 153.96 106.25 154.00000000000003C109.22 154.05000000000004 112.2 154.43000000000004 115.1 155.13000000000002C115.75 155.29000000000002 116.16 155.94000000000003 116 156.59000000000003C115.86 157.15000000000003 115.36 157.52000000000004 114.81 157.52000000000004Z " fill="#dae4e9" fill-opacity="1" transform="matrix(1,0,0,1,-84,-138)"></path><path id="SvgjsPath1038" d="M94.23 154.21C93.7 154.21 93.22 153.87 93.06 153.35C92.85000000000001 152.71 93.21000000000001 152.03 93.86 151.82999999999998C99.2 150.17 104.73 149.63 110.3 150.24999999999997C110.97 150.31999999999996 111.45 150.91999999999996 111.38 151.58999999999997C111.31 152.25999999999996 110.71 152.74999999999997 110.03 152.65999999999997C104.8 152.08999999999997 99.61 152.58999999999997 94.59 154.14999999999998C94.47 154.18999999999997 94.35000000000001 154.20999999999998 94.23 154.20999999999998Z " fill="#dae4e9" fill-opacity="1" transform="matrix(1,0,0,1,-84,-138)"></path><path id="SvgjsPath1039" d="M94.23 148.11C93.7 148.11 93.22 147.78 93.06 147.26000000000002C92.85000000000001 146.62000000000003 93.21000000000001 145.93 93.86 145.73000000000002C94.7 145.47000000000003 95.55 145.24 96.39 145.04000000000002C97.04 144.88000000000002 97.71 145.28000000000003 97.87 145.93C98.03 146.58 97.62 147.24 96.97 147.4C96.17999999999999 147.59 95.38 147.81 94.59 148.05C94.47 148.09 94.35000000000001 148.11 94.23 148.11Z " fill="#dae4e9" fill-opacity="1" transform="matrix(1,0,0,1,-84,-138)"></path><path id="SvgjsPath1040" d="M114.71 147.53C114.61999999999999 147.53 114.52 147.52 114.41999999999999 147.49C110.13999999999999 146.46 105.73999999999998 146.18 101.35999999999999 146.66C100.68999999999998 146.74 100.07999999999998 146.25 100.00999999999999 145.59C99.92999999999999 144.92000000000002 100.41999999999999 144.32 101.08999999999999 144.24C105.75999999999999 143.73000000000002 110.43999999999998 144.03 114.99999999999999 145.13C115.65999999999998 145.29 116.05999999999999 145.95 115.89999999999999 146.6C115.75999999999999 147.15 115.25999999999999 147.53 114.71 147.53Z " fill="#dae4e9" fill-opacity="1" transform="matrix(1,0,0,1,-84,-138)"></path><path id="SvgjsPath1041" d="M115 160.92C115 161.39999999999998 115.55 161.69 115.96 161.42L118.67999999999999 159.61999999999998L121.41 161.42C121.81 161.69 122.36 161.39999999999998 122.36 160.92V142.17999999999998C122.36 141.7 122.08 141.24999999999997 121.63 141.05999999999997C119.72 140.21999999999997 117.75999999999999 139.53999999999996 115.77 139.01999999999998C115.38 138.92 115 139.21999999999997 115 139.61999999999998Z " fill="#8fb5c8" fill-opacity="1" transform="matrix(1,0,0,1,-84,-138)"></path></svg>